<?xml version="1.0" standalone="no"?>
<!DOCTYPE svg PUBLIC "-//W3C//DTD SVG 20010904//EN"
 "http://www.w3.org/TR/2001/REC-SVG-20010904/DTD/svg10.dtd">
<svg version="1.0" xmlns="http://www.w3.org/2000/svg"
 width="1563.000000pt" height="313.000000pt" viewBox="0 0 1563.000000 313.000000"
 preserveAspectRatio="xMidYMid meet">

<g transform="translate(0.000000,313.000000) scale(0.100000,-0.100000)"
fill="#000000" stroke="none">
<path d="M14793 3116 c-66 -21 -98 -50 -224 -201 -160 -194 -154 -191 -404
-188 l-190 1 100 -18 c62 -11 129 -31 175 -53 41 -19 90 -37 109 -41 47 -9
106 10 144 45 23 21 26 27 10 20 -38 -19 -37 -12 10 37 28 31 64 89 95 154 87
181 140 223 285 223 83 0 87 1 56 13 -48 20 -119 23 -166 8z"/>
<path d="M14442 3103 c-57 -20 -139 -97 -183 -172 l-36 -61 -7 32 -7 33 -13
-38 c-14 -39 -25 -55 -64 -98 l-23 -26 38 -6 c113 -19 214 4 249 58 9 14 23
54 31 88 21 88 59 153 107 182 l41 25 -45 -1 c-25 0 -64 -7 -88 -16z"/>
<path d="M13053 2945 c-3 -9 -3 -42 1 -73 l6 -57 -57 -40 c-84 -60 -202 -181
-259 -266 -66 -99 -110 -205 -129 -314 -38 -222 0 -399 113 -526 40 -45 42
-50 15 -31 -18 13 -53 46 -78 75 l-45 52 0 -130 c0 -192 31 -384 98 -607 l29
-97 -34 -32 c-18 -18 -33 -37 -33 -41 0 -4 35 -8 79 -8 94 0 107 8 175 107 60
89 93 186 108 320 14 120 25 108 27 -27 2 -119 -38 -237 -121 -357 l-29 -43
249 0 249 0 28 63 c52 114 65 186 65 356 0 142 2 160 24 206 12 28 38 65 57
84 37 37 134 86 189 96 33 6 32 5 -15 -20 -113 -60 -174 -153 -183 -281 -6
-94 10 -183 59 -329 l41 -119 -31 -28 -31 -28 279 0 280 0 21 57 c35 91 67
231 80 339 19 165 -12 350 -82 487 -58 116 -172 250 -226 268 -138 44 -361
176 -479 283 -33 31 -64 56 -68 56 -4 0 -33 -21 -66 -46 -54 -43 -95 -87 -127
-138 -12 -20 -13 -20 -6 4 27 99 137 228 268 312 45 29 134 76 200 105 65 30
130 63 145 74 39 31 71 89 71 131 l0 36 -72 12 c-100 17 -194 47 -248 78 -40
24 -55 27 -135 26 -62 0 -115 -7 -172 -23 l-81 -23 -52 36 c-56 39 -87 45 -97
21z"/>
<path d="M263 2271 c-103 -37 -181 -111 -231 -219 -36 -78 -38 -216 -3 -305
32 -81 114 -168 199 -209 l67 -33 425 -5 c416 -5 426 -5 467 -27 52 -28 106
-83 129 -131 26 -55 30 -153 9 -209 -22 -57 -85 -127 -140 -156 -39 -22 -47
-22 -612 -25 l-573 -3 0 -59 0 -60 563 0 c628 0 623 0 726 68 67 44 136 137
157 210 24 82 16 210 -19 285 -34 74 -119 160 -194 195 l-58 27 -420 5 c-374
5 -424 7 -459 23 -134 60 -201 196 -162 329 20 70 83 143 151 174 l50 24 563
0 562 0 0 60 0 60 -572 0 c-535 -1 -576 -2 -625 -19z"/>
<path d="M1833 1858 c4 -474 5 -483 68 -613 119 -244 351 -398 618 -412 143
-8 245 13 371 74 80 40 109 61 185 137 104 104 162 204 195 332 18 71 20 112
20 496 l0 418 -60 0 -60 0 0 -403 c0 -371 -2 -410 -20 -482 -44 -171 -156
-308 -318 -390 -78 -39 -138 -55 -232 -61 -246 -17 -477 119 -586 343 -58 120
-64 176 -64 609 l0 384 -61 0 -60 0 4 -432z"/>
<path d="M3660 1560 l0 -730 60 0 60 0 0 335 0 334 523 3 522 3 68 32 c82 39
154 110 194 190 26 53 28 67 28 168 0 98 -3 116 -27 167 -37 80 -107 152 -187
191 l-66 32 -587 3 -588 3 0 -731z m1164 594 c63 -22 138 -97 160 -160 9 -26
16 -70 16 -98 0 -97 -95 -214 -207 -256 -52 -19 -72 -20 -531 -18 l-477 3 -3
273 -2 272 498 0 c433 0 505 -2 546 -16z"/>
<path d="M5940 2274 c-243 -52 -468 -272 -536 -524 -25 -90 -25 -291 0 -379
38 -140 134 -287 245 -375 86 -69 138 -98 236 -133 l80 -28 438 -3 437 -3 0
60 0 61 -398 0 c-364 0 -405 2 -476 20 -106 27 -188 73 -271 152 -102 96 -165
213 -182 333 l-6 45 567 0 566 0 0 60 0 60 -566 0 -567 0 6 45 c28 203 194
400 400 476 61 23 72 23 495 27 l432 3 0 59 0 60 -417 -1 c-318 0 -434 -4
-483 -15z"/>
<path d="M7210 1560 l0 -730 60 0 60 0 0 335 0 335 499 0 c552 0 547 1 627
-65 23 -19 54 -58 68 -87 26 -51 26 -54 26 -285 l0 -233 61 0 60 0 -3 252 -3
253 -29 60 c-18 36 -53 83 -89 118 -33 31 -55 57 -50 57 23 0 109 100 137 160
29 60 31 73 31 170 0 93 -3 111 -27 163 -35 74 -121 160 -195 195 l-58 27
-587 3 -588 3 0 -731z m1188 584 c59 -29 107 -80 134 -142 16 -35 19 -61 16
-122 -3 -68 -7 -83 -37 -126 -18 -27 -49 -62 -69 -77 -72 -56 -92 -57 -622
-55 l-485 3 -3 273 -2 272 508 0 508 0 52 -26z"/>
<path d="M9040 1560 l0 -730 60 0 60 0 0 335 0 335 610 0 610 0 0 -335 0 -335
60 0 60 0 0 730 0 730 -60 0 -60 0 0 -335 0 -335 -610 0 -610 0 0 335 0 335
-60 0 -60 0 0 -730z"/>
<path d="M11420 2269 c-255 -66 -459 -271 -526 -529 -25 -94 -23 -272 5 -373
34 -128 83 -209 191 -318 78 -79 110 -103 180 -138 153 -75 144 -74 628 -78
l432 -4 0 60 0 61 -397 0 c-449 0 -487 5 -606 67 -86 45 -199 149 -245 225
-38 63 -70 151 -79 213 l-6 45 567 0 566 0 0 60 0 60 -565 0 -565 0 0 28 c0
16 7 53 16 83 54 185 202 341 390 412 57 21 72 22 492 25 l432 3 0 59 0 60
-417 -1 c-380 0 -425 -2 -493 -20z"/>
<path d="M14170 2230 l0 -60 335 0 335 0 0 -670 0 -670 60 0 60 0 0 670 0 670
335 0 335 0 0 60 0 60 -730 0 -730 0 0 -60z"/>
<path d="M9397 443 c-12 -23 -177 -388 -194 -430 -3 -7 -1 -13 5 -13 11 0 217
458 209 466 -3 3 -12 -7 -20 -23z"/>
<path d="M4070 404 c-69 -30 -110 -93 -110 -169 0 -60 19 -103 63 -142 91 -80
240 -47 289 65 68 154 -88 313 -242 246z m158 -34 c46 -28 72 -76 72 -133 0
-77 -45 -139 -114 -158 -56 -15 -101 -3 -147 38 -63 57 -72 141 -23 211 43 62
146 82 212 42z"/>
<path d="M5844 410 c-57 -23 -72 -104 -28 -145 15 -14 31 -25 35 -25 5 0 33
-9 64 -21 70 -26 93 -56 75 -99 -25 -61 -133 -62 -180 -3 -23 29 -35 26 -25
-7 19 -60 147 -82 204 -34 25 21 31 33 31 65 0 51 -28 80 -101 104 -82 26 -99
40 -99 79 0 44 26 66 79 66 35 0 48 -6 71 -30 30 -32 49 -25 30 10 -22 42
-102 62 -156 40z"/>
<path d="M8650 404 c-69 -30 -110 -93 -110 -168 0 -110 75 -186 184 -186 25 0
57 5 73 11 29 11 83 57 83 71 0 16 -27 7 -50 -17 -45 -48 -129 -55 -195 -15
-93 57 -91 203 5 267 60 41 166 26 204 -29 11 -15 19 -19 26 -12 15 15 -17 54
-64 75 -49 22 -109 24 -156 3z"/>
<path d="M11635 406 c-74 -33 -125 -125 -111 -203 27 -144 204 -205 309 -105
16 15 35 39 43 54 17 32 18 115 3 155 -33 88 -156 138 -244 99z m186 -63 c63
-68 63 -158 -2 -222 -101 -101 -269 -30 -269 115 0 51 27 101 69 130 31 22 45
25 100 22 59 -4 66 -7 102 -45z"/>
<path d="M1730 230 c0 -113 4 -180 10 -180 6 0 10 67 10 180 0 113 -4 180 -10
180 -6 0 -10 -67 -10 -180z"/>
<path d="M2120 230 c0 -113 4 -180 10 -180 6 0 10 58 10 155 0 85 3 155 8 155
4 0 36 -48 71 -106 l63 -106 67 111 66 112 3 -161 c2 -122 5 -161 15 -157 9 3
13 52 15 180 l2 177 -22 0 c-18 0 -35 -20 -82 -100 -32 -55 -61 -100 -65 -100
-3 0 -33 45 -66 100 -89 149 -95 144 -95 -80z"/>
<path d="M2810 229 c0 -140 3 -180 13 -177 7 3 13 29 15 71 l3 67 54 0 c101 0
145 34 145 113 0 40 -5 53 -29 78 -28 28 -34 29 -115 29 l-86 0 0 -181z m181
132 c32 -33 36 -58 14 -100 -18 -36 -32 -41 -106 -41 l-59 0 0 85 0 85 61 0
c54 0 64 -3 90 -29z"/>
<path d="M3390 230 c0 -113 4 -180 10 -180 6 0 10 32 10 75 l0 75 60 0 60 0
42 -75 c24 -41 49 -75 56 -75 18 0 16 8 -29 83 -22 38 -39 70 -37 71 1 2 14 9
26 15 31 16 53 71 46 111 -4 17 -20 42 -36 55 -27 23 -38 25 -119 25 l-89 0 0
-180z m173 149 c49 -22 61 -86 22 -124 -21 -22 -33 -25 -100 -25 l-75 0 0 80
0 80 65 0 c35 0 75 -5 88 -11z"/>
<path d="M4640 358 c102 -270 117 -303 130 -303 9 0 37 61 81 178 51 135 63
177 51 175 -10 -2 -34 -54 -71 -155 -31 -84 -58 -153 -61 -153 -3 0 -31 69
-61 153 -38 105 -61 153 -72 155 -15 3 -15 -2 3 -50z"/>
<path d="M5250 230 l0 -180 100 0 c82 0 100 3 100 15 0 12 -17 15 -90 15 l-90
0 0 70 0 70 85 0 c69 0 85 3 85 15 0 12 -16 15 -85 15 l-85 0 0 70 0 70 90 0
c53 0 90 4 90 10 0 6 -40 10 -100 10 l-100 0 0 -180z"/>
<path d="M6780 230 c0 -108 4 -180 10 -180 5 0 11 39 12 88 l3 87 105 0 105 0
3 -88 c1 -48 7 -87 12 -87 6 0 10 72 10 180 0 108 -4 180 -10 180 -5 0 -10
-35 -12 -77 l-3 -78 -107 -3 -108 -3 0 81 c0 47 -4 80 -10 80 -6 0 -10 -67
-10 -180z"/>
<path d="M7404 318 c95 -260 99 -269 113 -266 12 2 142 323 143 351 0 4 -6 7
-12 7 -8 0 -37 -66 -68 -151 -30 -83 -57 -152 -61 -155 -3 -2 -23 43 -44 99
-21 56 -46 126 -57 155 -11 29 -26 52 -34 52 -10 0 -5 -22 20 -92z"/>
<path d="M8007 237 c-37 -94 -67 -175 -67 -180 0 -4 5 -7 10 -7 6 0 19 20 30
45 l19 45 91 0 91 0 19 -45 c11 -25 24 -45 30 -45 5 0 10 3 10 7 0 3 -30 84
-67 180 -49 129 -70 173 -83 173 -12 0 -34 -44 -83 -173z m123 41 c19 -51 37
-96 38 -100 2 -4 -33 -8 -78 -8 -45 0 -80 4 -78 8 2 4 19 49 38 100 19 51 37
92 40 92 3 0 21 -41 40 -92z"/>
<path d="M9770 230 c0 -113 4 -180 10 -180 6 0 10 32 10 75 l0 75 60 0 59 0
42 -70 c23 -39 46 -73 51 -76 25 -15 17 12 -22 76 -23 40 -40 73 -38 74 1 2
14 9 26 15 31 16 55 75 47 112 -4 16 -20 40 -37 54 -27 23 -38 25 -119 25
l-89 0 0 -180z m194 134 c34 -34 34 -77 1 -109 -21 -22 -33 -25 -100 -25 l-75
0 0 80 0 80 74 0 c66 0 76 -3 100 -26z"/>
<path d="M10794 233 c37 -127 57 -179 68 -181 13 -2 25 25 56 125 23 70 44
140 47 156 4 15 10 29 14 32 4 2 29 -68 56 -155 37 -122 52 -160 65 -160 12 0
27 39 64 167 27 93 51 174 53 181 3 6 -2 12 -10 12 -10 0 -21 -18 -31 -52 -8
-29 -27 -96 -41 -148 -31 -108 -40 -123 -49 -83 -4 15 -25 85 -47 156 -31 100
-44 127 -58 127 -12 0 -22 -15 -34 -52 -8 -29 -30 -99 -47 -156 -18 -57 -34
-101 -37 -98 -3 3 -24 72 -48 153 -29 101 -47 149 -57 151 -12 2 -4 -36 36
-175z"/>
<path d="M12240 230 c0 -113 4 -180 10 -180 6 0 10 32 10 75 l0 76 62 -3 62
-3 36 -63 c40 -69 57 -89 66 -79 3 3 -11 37 -32 74 -22 37 -40 71 -42 74 -1 3
9 11 22 17 60 27 70 115 19 166 -24 24 -32 26 -119 26 l-94 0 0 -180z m195
135 c31 -30 32 -73 4 -109 -19 -24 -26 -26 -100 -26 l-79 0 0 73 c0 41 3 77 7
80 3 4 37 7 75 7 60 0 72 -3 93 -25z"/>
<path d="M12830 230 l0 -180 100 0 c82 0 100 3 100 15 0 12 -16 15 -85 15
l-85 0 0 165 c0 140 -2 165 -15 165 -13 0 -15 -27 -15 -180z"/>
<path d="M13360 229 l0 -181 93 4 c109 4 150 24 185 86 31 56 31 146 -1 193
-43 64 -78 79 -183 79 l-94 0 0 -181z m200 143 c40 -21 80 -90 80 -137 -1 -47
-35 -112 -72 -135 -26 -15 -50 -20 -110 -20 l-78 0 0 148 c0 82 3 152 7 155
14 15 139 7 173 -11z"/>
</g>
</svg>
