<?xml version="1.0" encoding="utf-8"?>
<!-- Generator: Adobe Illustrator 19.2.1, SVG Export Plug-In . SVG Version: 6.00 Build 0)  -->
<svg version="1.1" id="layer" xmlns="http://www.w3.org/2000/svg" xmlns:xlink="http://www.w3.org/1999/xlink" x="0px" y="0px"
	 viewBox="0 0 652 652" style="enable-background:new 0 0 652 652;" xml:space="preserve">
<style type="text/css">
	.st0{fill:#E2251D;}
	.st1{fill:#FFFFFF;}
</style>
<g>
	<path class="st0" d="M626.6,326.2c0,82.8-134.3,150-300,150c-165.7,0-300-67.2-300-150s134.3-150,300-150
		C492.3,176.2,626.6,243.3,626.6,326.2"/>
	<path class="st1" d="M212.2,271.2l-0.2,7.9c-1.5,0.6-1.5-1.4-2.3-1.9c-7.7-8.6-20.9-10.3-32-7c-10.3,3.8-18,13-19.6,23.7
		c-2.4,13.9-1.5,29.3,6.6,39.7l-0.2,0.2c5.5,8.5,15.6,15.1,26.7,14.7c7.8,0,13.9-3.6,19.7-8.1h1.2l-0.4,6.6c-7,4.2-13,7.2-21.6,7.9
		c-7.3,1-15.6-0.9-21-3c-16.4-5.6-27.1-19.6-29.5-36.7c-2.1-15.9,3-32.3,15.5-42.6c12.3-10.4,30.9-13.9,46.3-7.9
		C205.4,266.3,208.8,268.4,212.2,271.2"/>
	<path class="st1" d="M363.1,276.3c3.2,8,4.5,17.7-0.2,23.9c-4.5,6.7-11.8,8.8-18.4,11.1c7.3,14,15.4,28.1,22.9,41.5
		c-5.6,0.2-12.8,0.2-19.1,0c-8.5-15-16.9-29.9-24.8-44.6c4.7-1.2,10-1.3,14.8-2.8c6.4-1.4,10.9-7.9,11.5-14.1
		c0.7-8.5-1.2-16.8-9.6-20.9c-5.7-3-18.7-0.9-20.6-1.6v27V314v39.4h-16.9v-90.4h16.9C323.8,262.6,355.1,260.4,363.1,276.3"/>
	<polygon class="st1" points="438.8,263.7 438.8,270.7 402.8,270.7 402.8,297.3 402.8,303.1 436.4,303.1 436.4,310.4 402.8,310.4 
		402.8,315.6 402.8,321.7 402.8,345.6 438.8,345.6 438.8,353.4 384.4,353.4 384.4,347.7 384.4,263.7 400.3,263.7 	"/>
	<polygon class="st1" points="478.7,263.7 478.7,279.5 478.7,345.6 514.1,345.6 514.1,353.4 460.5,353.4 460.5,263.7 466.9,263.8 	
		"/>
	<path class="st1" d="M252.2,260.2l-38.3,89.9l-1.5,3.4h8.2c3.7-6.8,7.6-15.9,11.2-23.7h30c3,6.6,7,16.4,9.7,23.7h18.1
		C277.1,322.2,264.6,291,252.2,260.2 M235.4,321.9c3.1-9,8.1-19,11.7-28.5c4.3,8.7,7.9,19,11.8,28.5H235.4z"/>
	<path class="st1" d="M140.2,392.1l-0.1-10.7H390c0.3,0.6,0,10.7,0,10.7H140.2"/>
	<path class="st1" d="M426.3,381.4v10.7H399l0.1-10.7C396.2,381.4,418.9,381.4,426.3,381.4"/>
	<polygon class="st1" points="514.1,381.4 514.1,392.1 435.6,392.1 435.6,381.4 	"/>
</g>
</svg>
