<?xml version="1.0" encoding="utf-8"?>
<!-- Generator: Adobe Illustrator 19.2.1, SVG Export Plug-In . SVG Version: 6.00 Build 0)  -->
<svg version="1.1" id="layer" xmlns="http://www.w3.org/2000/svg" xmlns:xlink="http://www.w3.org/1999/xlink" x="0px" y="0px" height="100px"
	 viewBox="0 0 652 652" style="enable-background:new 0 0 652 652;" xml:space="preserve">
<style type="text/css">
	.st0{fill:#234A98;}
</style>
<g>
	<path class="st0" d="M20.9,386.8V259.6c0-2.5,1-3.3,3.9-3.3h72.8c49.2,0,78.7,19.2,78.7,65.2c0,46-29.5,65.2-78.7,65.2 M64.2,367.6
		h33.4c23.6,0,33.4-17.3,33.4-46c0-30.7-9.8-46-33.4-46H64.2V367.6z"/>
	<path class="st0" d="M230.6,272.6c0,11.3-8.9,17.1-21.1,17.1c-12.4,0-21-5.8-21-17.1c0-11.7,8.7-17.5,21-17.5
		C221.7,255.2,230.6,261.5,230.6,272.6 M229.4,386.8h-39.4v-81.9c0-2.3,1-2.5,3.7-3.1l35.6-7.7V386.8z"/>
	<path class="st0" d="M290.4,356.6l-27.7,30.1h-25.8l41.9-44.3L243,298.9c-2-2.3-0.8-3.3,1.6-3.3h40.7l20.3,24.6l20.7-22.2
		c1-1.2,2.8-2.3,5.1-2.3h22.4l-36.6,38.8l43.3,52.4h-45.2"/>
	<path class="st0" d="M413.5,389.6c-36.4,0-58.8-15.7-58.8-48c0-34.1,20.5-48.9,56.9-48.9c34.2,0,52.7,16.1,52.7,48.9v6.7h-68.9
		c1.8,17.5,11,24,26.8,24c8.5,0,19.5-2.5,30.9-5.4c2.4-0.6,3.7-0.6,4.5,1.5l5.5,13.4C449.6,386.2,435.2,389.6,413.5,389.6
		 M395.2,333.1h32.3c-1.6-16.1-4.5-23-15.9-23C400,310,396,317.1,395.2,333.1"/>
	<path class="st0" d="M516.4,386.8h-39.4V263.4c0-2.5,1-2.7,3.7-3.3l35.6-7.7"/>
	<path class="st0" d="M573.5,386.8h-39.3V263.4c0-2.5,1-2.7,3.7-3.3l35.6-7.7"/>
	<path class="st0" d="M593.5,257.7v15h-2.4v-15h-5.9v-1.3h14.2v1.3 M618.5,272.6v-15.1l-5.9,15.1h-2.4l-6.1-15v15h-2v-16.3h3.7
		l5.7,14l5.5-14h3.7v16.3H618.5z"/>
</g>
</svg>
