<svg version="1.1" id="Layer_1" xmlns="http://www.w3.org/2000/svg" xmlns:xlink="http://www.w3.org/1999/xlink" x="0px" y="0px"
	 width="100%" viewBox="0 0 624 416" enable-background="new 0 0 624 416" xml:space="preserve">
<path fill="#939E9E" opacity="1.000000" stroke="none" 
	d="
M462.280090,260.129700 
	C457.037109,267.248474 450.057373,271.023102 441.901062,272.233215 
	C427.066071,274.434174 412.361328,274.718842 398.952515,266.385834 
	C398.628998,266.747406 398.269043,266.959106 398.241394,267.207764 
	C396.363251,284.088776 386.799957,291.205139 368.623505,293.014679 
	C358.838623,293.988800 348.985596,293.637421 339.364563,291.092712 
	C330.975830,288.873901 325.259918,283.903229 323.119843,275.224274 
	C322.233521,271.629944 323.298981,269.757660 327.185822,269.760864 
	C333.848999,269.766296 340.512543,269.718994 347.175262,269.640167 
	C348.789825,269.621094 349.942108,270.117096 351.037537,271.407349 
	C354.903046,275.960419 363.186371,277.262207 368.153961,274.171875 
	C372.287750,271.600250 372.036652,267.637634 371.482391,263.323761 
	C356.550293,269.202515 342.200928,269.471222 328.424103,260.226410 
	C328.282990,260.247833 327.844116,260.177643 327.664673,260.361145 
	C311.720703,276.666168 292.476776,275.644684 272.844696,270.121277 
	C262.838623,267.306091 256.808777,259.772095 254.634796,249.439270 
	C254.429382,248.462997 254.179474,247.494232 253.903671,246.535400 
	C253.769257,246.068085 253.527420,245.631699 253.100403,244.636276 
	C241.054138,248.505615 228.563644,246.742966 216.188278,247.140686 
	C213.456619,247.228455 212.312317,248.546646 212.329636,251.202194 
	C212.362228,256.199524 212.248062,261.198425 212.326508,266.194611 
	C212.377457,269.439178 211.164032,271.242310 207.702560,271.221436 
	C201.039383,271.181213 194.374863,271.159485 187.712662,271.254181 
	C184.668091,271.297455 183.650330,269.882935 183.656067,266.990723 
	C183.703293,243.168457 183.690842,219.346039 183.659012,195.523697 
	C183.655365,192.794052 184.521515,190.845810 187.542664,190.873474 
	C207.019577,191.051773 226.519882,189.977325 245.968216,191.453537 
	C256.723297,192.269882 263.308777,198.343063 265.457458,209.031906 
	C265.587097,209.676865 265.848541,210.306686 266.128418,210.906296 
	C266.331207,211.340683 266.666077,211.713409 266.977295,212.164780 
	C287.760590,204.227814 307.742950,202.922409 325.926056,219.303268 
	C333.961273,210.078339 344.411896,206.871521 356.348724,207.670380 
	C356.680969,207.692612 357.058075,207.594254 357.341400,207.718414 
	C368.747528,212.717163 380.472229,207.919098 392.022186,208.788010 
	C395.568695,209.054825 398.458160,209.246933 398.309662,214.929947 
	C405.116058,210.119507 411.991760,207.912643 419.282867,207.155869 
	C428.445618,206.204849 437.587463,206.258911 446.546478,208.758774 
	C457.617798,211.848114 465.018738,218.526276 466.657349,230.340622 
	C468.069824,240.524750 468.256836,250.617340 462.280090,260.129700 
M436.591156,251.207245 
	C441.046082,246.000259 441.989014,238.659882 438.971863,232.674347 
	C436.721436,228.209793 431.817566,226.372070 424.648712,227.226151 
	C420.088806,227.769409 417.237183,230.409073 416.564484,234.749741 
	C415.696655,240.349564 415.041656,246.389603 420.042480,250.492630 
	C424.822571,254.414520 430.442810,254.193008 436.591156,251.207245 
M351.921539,229.273651 
	C350.184204,230.361511 348.967621,231.789932 348.188416,233.765732 
	C346.610107,237.767761 347.327911,241.503510 349.976288,244.495163 
	C353.586761,248.573593 358.527374,249.355850 363.706848,248.270660 
	C368.353668,247.297104 371.568573,244.891525 371.796814,239.618591 
	C372.047058,233.837463 369.872589,230.218063 364.710510,228.399857 
	C360.616577,226.957840 356.556641,227.009766 351.921539,229.273651 
M212.578979,223.666306 
	C218.291489,227.702667 224.673630,225.212051 230.740295,225.343124 
	C233.957886,225.412643 236.441101,223.328903 236.481125,219.691772 
	C236.520264,216.135757 235.404816,213.246414 231.461929,212.084183 
	C228.833527,211.309418 226.211105,211.374649 223.573776,211.420273 
	C210.985107,211.638046 212.267242,209.395508 212.578979,223.666306 
M313.472107,247.384460 
	C302.666718,247.384460 291.861328,247.384460 280.428741,247.384460 
	C284.624573,256.107239 295.398651,258.649414 302.367737,253.408310 
	C305.112946,251.343765 307.806732,250.719421 311.063354,250.653732 
	C314.502350,250.584351 318.174713,251.675980 321.771393,249.446762 
	C319.676636,246.253220 316.756805,247.813858 313.472107,247.384460 
M290.592957,231.686493 
	C295.146301,231.389984 299.789551,232.341263 304.347870,231.017838 
	C302.681610,225.853867 297.625732,223.022400 291.235718,223.416428 
	C285.296661,223.782654 282.156372,226.158875 281.340698,231.009552 
	C284.014709,232.251633 286.877625,231.440933 290.592957,231.686493 
z"/>
<path fill="#939E9E" opacity="1.000000" stroke="none" 
	d="
M141.914581,205.010620 
	C154.408051,182.733917 171.986282,165.641998 192.141174,151.053497 
	C217.788925,132.489182 245.222122,117.249878 275.727264,108.160973 
	C293.323456,102.918236 311.102600,100.615730 329.286896,105.767113 
	C352.105896,112.231438 371.354767,135.308762 373.142639,158.873718 
	C373.239044,160.144516 373.415588,161.454208 372.317810,162.439423 
	C370.372040,161.782455 370.869934,160.218979 370.628418,159.032455 
	C365.856903,135.593201 350.852356,119.467613 329.080994,115.771683 
	C314.372650,113.274773 299.782532,115.725365 285.830780,120.620422 
	C245.067596,134.922455 208.358276,156.035461 177.919632,187.076736 
	C163.910889,201.362823 152.574707,217.552460 146.614182,236.967712 
	C141.450607,253.787140 142.318665,270.108948 151.107727,285.674072 
	C151.427216,286.239838 151.623474,286.878052 151.845428,287.493896 
	C151.895676,287.633301 151.813293,287.820526 151.755203,288.270386 
	C149.535156,289.018036 148.601288,287.038513 147.514099,285.897308 
	C137.553741,275.442047 132.749023,262.735199 131.710007,248.523972 
	C130.583755,233.119431 134.690628,218.873199 141.914581,205.010620 
z"/>
<path fill="#939E9E" opacity="1.000000" stroke="none" 
	d="
M472.131134,210.564453 
	C474.936920,212.710831 476.027313,215.111420 474.764404,218.142426 
	C473.710693,220.671387 471.610992,222.002243 468.952301,221.969162 
	C466.466949,221.938232 464.651062,220.479568 463.568237,218.231949 
	C462.537689,216.092880 462.823578,214.061066 464.312408,212.236816 
	C466.321198,209.775497 468.809052,209.067352 472.131134,210.564453 
z"/>
</svg>