<svg version="1.1" id="Layer_1" xmlns="http://www.w3.org/2000/svg" xmlns:xlink="http://www.w3.org/1999/xlink" x="0px" y="0px"
	 width="100%" viewBox="0 0 200 200" enable-background="new 0 0 200 200" xml:space="preserve">
<path fill="#FFF7EC" opacity="1.000000" stroke="none" 
	d="
M135.000000,201.000000 
	C90.000000,201.000000 45.500004,201.000000 1.000006,201.000000 
	C1.000004,134.333344 1.000004,67.666679 1.000002,1.000015 
	C67.666656,1.000010 134.333313,1.000010 200.999969,1.000005 
	C200.999985,67.666649 200.999985,134.333298 201.000000,200.999969 
	C179.166672,201.000000 157.333328,201.000000 135.000000,201.000000 
M78.080521,120.201683 
	C80.034805,125.102753 83.772629,128.013351 88.791397,129.011200 
	C99.000648,131.041031 108.996231,131.476578 116.327461,124.003021 
	C120.866463,125.134499 124.624718,126.633125 128.461685,126.873146 
	C132.467560,127.123718 136.549225,126.162315 141.574905,125.626595 
	C140.639923,127.674591 140.175827,130.782028 138.797653,131.261368 
	C136.174484,132.173737 132.194199,132.761261 130.262314,131.390671 
	C125.159500,127.770454 120.188011,130.034637 114.748833,129.512817 
	C115.123299,135.150879 118.185936,137.895966 122.455086,138.747559 
	C127.137642,139.681595 132.056213,140.208221 136.794388,139.859253 
	C141.124908,139.540314 145.968277,138.736435 149.431458,136.420395 
	C152.256607,134.531052 153.377502,130.093292 155.374634,126.572922 
	C161.465149,130.642578 168.998672,130.398590 176.486954,129.923294 
	C186.175400,129.308319 191.677795,123.558426 191.819061,114.319038 
	C191.966064,104.704773 186.599609,98.777313 176.662994,98.090187 
	C169.021194,97.561745 161.325150,97.323997 156.002975,100.905441 
	C153.269867,99.970596 151.823257,99.023766 150.418777,99.082588 
	C146.639481,99.240868 142.373886,101.175972 139.205307,99.990204 
	C130.100098,96.582748 122.343658,97.790779 115.209053,104.148239 
	C105.267654,95.715950 94.391792,96.759285 82.876808,100.700233 
	C81.294212,91.182907 74.652626,89.559578 66.557541,89.877937 
	C60.402199,90.120003 54.229767,89.927620 48.064938,89.928276 
	C45.153515,89.928589 42.242096,89.928329 39.348122,89.928329 
	C39.348122,103.387138 39.348122,115.968948 39.348122,128.617157 
	C44.221935,128.617157 48.764248,128.617157 53.835678,128.617157 
	C53.835678,124.653404 53.835678,121.070229 53.835678,116.733818 
	C61.603848,116.733818 68.853386,116.733818 76.722702,116.733818 
	C76.859520,117.065254 77.352676,118.259964 78.080521,120.201683 
M126.704926,54.580658 
	C127.430901,54.988064 128.116379,55.528687 128.894318,55.765148 
	C129.661880,55.998455 130.522995,55.923985 131.938431,56.028507 
	C121.146858,45.101883 108.381363,44.097633 95.235664,46.674358 
	C70.829353,51.458317 49.683304,63.239231 30.843611,79.128479 
	C20.751852,87.639786 12.826721,97.893387 10.575205,111.453575 
	C9.115909,120.242477 11.482696,127.985497 17.291922,134.652634 
	C17.171900,131.158920 16.225100,127.815155 16.029032,124.427933 
	C15.337725,112.485023 20.779736,102.745972 28.228764,94.182610 
	C46.986195,72.619164 71.202972,59.827271 98.354073,52.352268 
	C107.566681,49.815933 117.121651,49.391739 126.704926,54.580658 
z"/>
<path fill="#939E9E" opacity="1.000000" stroke="none" 
	d="
M77.963181,119.828178 
	C77.352676,118.259964 76.859520,117.065254 76.722702,116.733818 
	C68.853386,116.733818 61.603848,116.733818 53.835678,116.733818 
	C53.835678,121.070229 53.835678,124.653404 53.835678,128.617157 
	C48.764248,128.617157 44.221935,128.617157 39.348122,128.617157 
	C39.348122,115.968948 39.348122,103.387138 39.348122,89.928329 
	C42.242096,89.928329 45.153515,89.928589 48.064938,89.928276 
	C54.229767,89.927620 60.402199,90.120003 66.557541,89.877937 
	C74.652626,89.559578 81.294212,91.182907 82.876808,100.700233 
	C94.391792,96.759285 105.267654,95.715950 115.209053,104.148239 
	C122.343658,97.790779 130.100098,96.582748 139.205307,99.990204 
	C142.373886,101.175972 146.639481,99.240868 150.418777,99.082588 
	C151.823257,99.023766 153.269867,99.970596 156.002975,100.905441 
	C161.325150,97.323997 169.021194,97.561745 176.662994,98.090187 
	C186.599609,98.777313 191.966064,104.704773 191.819061,114.319038 
	C191.677795,123.558426 186.175400,129.308319 176.486954,129.923294 
	C168.998672,130.398590 161.465149,130.642578 155.374634,126.572922 
	C153.377502,130.093292 152.256607,134.531052 149.431458,136.420395 
	C145.968277,138.736435 141.124908,139.540314 136.794388,139.859253 
	C132.056213,140.208221 127.137642,139.681595 122.455086,138.747559 
	C118.185936,137.895966 115.123299,135.150879 114.748833,129.512817 
	C120.188011,130.034637 125.159500,127.770454 130.262314,131.390671 
	C132.194199,132.761261 136.174484,132.173737 138.797653,131.261368 
	C140.175827,130.782028 140.639923,127.674591 141.574905,125.626595 
	C136.549225,126.162315 132.467560,127.123718 128.461685,126.873146 
	C124.624718,126.633125 120.866463,125.134499 116.327461,124.003021 
	C108.996231,131.476578 99.000648,131.041031 88.791397,129.011200 
	C83.772629,128.013351 80.034805,125.102753 77.963181,119.828178 
M177.903442,116.932899 
	C177.983215,115.777924 178.169266,114.618797 178.124298,113.468697 
	C177.934738,108.619812 175.880768,106.780006 170.849670,106.850609 
	C165.940033,106.919510 163.575775,108.939659 164.079422,113.823509 
	C164.325989,116.214401 165.846664,119.622429 167.722992,120.445961 
	C171.118866,121.936447 175.295776,122.111687 177.903442,116.932899 
M138.934860,117.522873 
	C141.721024,114.968155 142.406830,111.351227 139.538345,109.408516 
	C137.122070,107.772072 133.093491,107.580528 130.013733,108.111954 
	C126.661400,108.690422 125.717651,112.636169 127.319870,114.859924 
	C128.829285,116.954880 132.256195,117.794411 134.978561,118.815559 
	C135.840698,119.138939 137.150162,118.269722 138.934860,117.522873 
M63.132912,107.118805 
	C66.231186,107.313377 68.381485,105.734428 67.617920,102.813248 
	C67.206131,101.237846 64.637337,99.557228 62.785862,99.180077 
	C59.824314,98.576797 56.649887,99.018585 53.551598,99.018585 
	C53.551598,102.093857 53.551598,104.345985 53.551598,107.129616 
	C56.652996,107.129616 59.442677,107.129616 63.132912,107.118805 
M103.694969,120.882126 
	C107.126106,120.403183 110.557243,119.924248 114.270554,119.405922 
	C111.897835,116.781479 98.615196,116.026810 90.583092,117.687126 
	C92.822533,123.005714 96.508904,124.098114 103.694969,120.882126 
M98.290298,105.009666 
	C95.009422,105.075836 91.718109,105.125648 90.890640,109.830475 
	C95.661629,109.830475 100.116417,109.830475 104.571213,109.830475 
	C104.793503,109.367020 105.015800,108.903564 105.238098,108.440109 
	C103.195396,107.311089 101.152695,106.182068 98.290298,105.009666 
z"/>
<path fill="#96A0A0" opacity="1.000000" stroke="none" 
	d="
M126.394684,54.383503 
	C117.121651,49.391739 107.566681,49.815933 98.354073,52.352268 
	C71.202972,59.827271 46.986195,72.619164 28.228764,94.182610 
	C20.779736,102.745972 15.337725,112.485023 16.029032,124.427933 
	C16.225100,127.815155 17.171900,131.158920 17.291922,134.652634 
	C11.482696,127.985497 9.115909,120.242477 10.575205,111.453575 
	C12.826721,97.893387 20.751852,87.639786 30.843611,79.128479 
	C49.683304,63.239231 70.829353,51.458317 95.235664,46.674358 
	C108.381363,44.097633 121.146858,45.101883 131.938431,56.028507 
	C130.522995,55.923985 129.661880,55.998455 128.894318,55.765148 
	C128.116379,55.528687 127.430901,54.988064 126.394684,54.383503 
z"/>
<path fill="#FAFCFC" opacity="1.000000" stroke="none" 
	d="
M177.765839,117.331085 
	C175.295776,122.111687 171.118866,121.936447 167.722992,120.445961 
	C165.846664,119.622429 164.325989,116.214401 164.079422,113.823509 
	C163.575775,108.939659 165.940033,106.919510 170.849670,106.850609 
	C175.880768,106.780006 177.934738,108.619812 178.124298,113.468697 
	C178.169266,114.618797 177.983215,115.777924 177.765839,117.331085 
z"/>
<path fill="#FAFCFC" opacity="1.000000" stroke="none" 
	d="
M138.594879,117.734573 
	C137.150162,118.269722 135.840698,119.138939 134.978561,118.815559 
	C132.256195,117.794411 128.829285,116.954880 127.319870,114.859924 
	C125.717651,112.636169 126.661400,108.690422 130.013733,108.111954 
	C133.093491,107.580528 137.122070,107.772072 139.538345,109.408516 
	C142.406830,111.351227 141.721024,114.968155 138.594879,117.734573 
z"/>
<path fill="#F6F9F9" opacity="1.000000" stroke="none" 
	d="
M62.682632,107.124207 
	C59.442677,107.129616 56.652996,107.129616 53.551598,107.129616 
	C53.551598,104.345985 53.551598,102.093857 53.551598,99.018585 
	C56.649887,99.018585 59.824314,98.576797 62.785862,99.180077 
	C64.637337,99.557228 67.206131,101.237846 67.617920,102.813248 
	C68.381485,105.734428 66.231186,107.313377 62.682632,107.124207 
z"/>
<path fill="#F3F6F6" opacity="1.000000" stroke="none" 
	d="
M103.360748,121.128342 
	C96.508904,124.098114 92.822533,123.005714 90.583092,117.687126 
	C98.615196,116.026810 111.897835,116.781479 114.270554,119.405922 
	C110.557243,119.924248 107.126106,120.403183 103.360748,121.128342 
z"/>
<path fill="#F6FAFA" opacity="1.000000" stroke="none" 
	d="
M98.700150,105.031357 
	C101.152695,106.182068 103.195396,107.311089 105.238098,108.440109 
	C105.015800,108.903564 104.793503,109.367020 104.571213,109.830475 
	C100.116417,109.830475 95.661629,109.830475 90.890640,109.830475 
	C91.718109,105.125648 95.009422,105.075836 98.700150,105.031357 
z"/>
</svg>